<svg xmlns="http://www.w3.org/2000/svg" xmlns:svg="http://www.w3.org/2000/svg" xmlns:xlink="http://www.w3.org/1999/xlink" id="svg4486" width="19" height="19" version="1.1" viewBox="0 0 19 19"><defs id="defs4488"><linearGradient id="linearGradient3844" x1="-1070.362" x2="-1055.362" y1="9" y2="9" gradientTransform="matrix(0,-1,1,0,-290.21429,-530.49914)" gradientUnits="userSpaceOnUse" xlink:href="#linearGradient4297"/><linearGradient id="linearGradient4297"><stop id="stop4523" offset="0" stop-color="#fff" stop-opacity="1"/><stop id="stop4525" offset="1" stop-color="#000" stop-opacity="1"/></linearGradient><linearGradient id="linearGradient3846" x1="-1070.104" x2="-1055.621" y1="9.5" y2="9.5" gradientTransform="matrix(0,-1.0357118,1.0357118,0,-290.55355,-568.45584)" gradientUnits="userSpaceOnUse" xlink:href="#linearGradient4297"/><linearGradient id="linearGradient3945" x1="-1070.104" x2="-1055.621" y1="9.5" y2="9.5" gradientTransform="matrix(0,-1.0357118,1.0357118,0,-290.55355,-568.45584)" gradientUnits="userSpaceOnUse" xlink:href="#linearGradient4297"/></defs><metadata id="metadata4491"/><g id="layer1" transform="translate(290.21429,-522.86219)"><path id="path4125" fill="#d63f5b" fill-opacity="1" fill-rule="nonzero" stroke="none" stroke-width="8" d="m -280.71429,524.86219 a 7.4999798,7.4999798 0 0 0 -7.5,7.5 7.4999798,7.4999798 0 0 0 7.5,7.5 7.4999798,7.4999798 0 0 0 7.5,-7.5 7.4999798,7.4999798 0 0 0 -7.5,-7.5 z m 2.53676,4.05331 c 0.19459,0.0361 0.40623,0.15805 0.57905,0.33088 0.34565,0.34565 0.44144,0.82693 0.19301,1.07537 l -2.04044,2.04044 2.04044,2.04044 c 0.24844,0.24845 0.15264,0.72972 -0.19301,1.07537 -0.34565,0.34565 -0.82692,0.44145 -1.07537,0.19301 l -2.04044,-2.04044 -2.04044,2.04044 c -0.24845,0.24844 -0.72972,0.15264 -1.07537,-0.19301 -0.34565,-0.34565 -0.44145,-0.82692 -0.19301,-1.07537 l 2.04044,-2.04044 -2.04044,-2.04044 c -0.24844,-0.24845 -0.15264,-0.72972 0.19301,-1.07537 0.17283,-0.17283 0.38522,-0.27163 0.57905,-0.30331 0.19382,-0.0318 0.3721,-0.0139 0.49632,0.1103 l 2.04044,2.04044 2.04044,-2.04044 c 0.12422,-0.12421 0.30174,-0.17397 0.49632,-0.13787 z" color="#000" display="inline" enable-background="accumulate" opacity=".7" overflow="visible" visibility="visible" style="marker:none"/><rect id="rect4127" width="19" height="19" x="-290.214" y="522.862" fill="none" stroke="none" stroke-width="1" color="#000" display="inline" enable-background="accumulate" opacity=".6" overflow="visible" visibility="visible" style="marker:none"/><path id="rect2988-0" fill="#dcdcdc" fill-opacity="1" stroke="none" d="m -281.52256,554.07269 c -0.21967,0.0359 -0.46038,0.14788 -0.65625,0.34375 -0.39174,0.39173 -0.50031,0.93718 -0.21875,1.21875 l 2.3125,2.3125 -2.3125,2.3125 c -0.28156,0.28157 -0.17299,0.82702 0.21875,1.21875 0.39173,0.39174 0.93718,0.50031 1.21875,0.21875 l 2.3125,-2.3125 2.3125,2.3125 c 0.28157,0.28156 0.82702,0.17299 1.21875,-0.21875 0.39174,-0.39173 0.50031,-0.93718 0.21875,-1.21875 l -2.3125,-2.3125 2.3125,-2.3125 c 0.28155,-0.28156 0.17299,-0.82702 -0.21875,-1.21875 -0.39173,-0.39174 -0.93719,-0.5003 -1.21875,-0.21875 l -2.3125,2.3125 -2.3125,-2.3125 c -0.14078,-0.14078 -0.34283,-0.16095 -0.5625,-0.125 z"/></g></svg>