<svg xmlns="http://www.w3.org/2000/svg" xmlns:svg="http://www.w3.org/2000/svg" xmlns:xlink="http://www.w3.org/1999/xlink" id="svg4486" width="19" height="19" version="1.1" viewBox="0 0 19 19"><defs id="defs4488"><linearGradient id="linearGradient3844" x1="-1070.362" x2="-1055.362" y1="9" y2="9" gradientTransform="matrix(0,-1,1,0,-290.21429,-530.49914)" gradientUnits="userSpaceOnUse" xlink:href="#linearGradient4297"/><linearGradient id="linearGradient4297"><stop id="stop4523" offset="0" stop-color="#fff" stop-opacity="1"/><stop id="stop4525" offset="1" stop-color="#000" stop-opacity="1"/></linearGradient><linearGradient id="linearGradient3846" x1="-1070.104" x2="-1055.621" y1="9.5" y2="9.5" gradientTransform="matrix(0,-1.0357118,1.0357118,0,-290.55355,-568.45584)" gradientUnits="userSpaceOnUse" xlink:href="#linearGradient4297"/><linearGradient id="linearGradient3997" x1="-1070.104" x2="-1055.621" y1="9.5" y2="9.5" gradientTransform="matrix(0,-1.0357118,1.0357118,0,-290.55355,-568.45584)" gradientUnits="userSpaceOnUse" xlink:href="#linearGradient4297"/></defs><metadata id="metadata4491"/><g id="layer1" transform="translate(290.21429,-522.86219)"><path id="path4267" fill="#9cb7e0" fill-opacity="1" fill-rule="nonzero" stroke="none" stroke-width="8" d="m -280.71429,524.86219 a 7.4999794,7.4999794 0 0 0 -7.5,7.5 7.4999794,7.4999794 0 0 0 7.5,7.5 7.4999794,7.4999794 0 0 0 7.5,-7.5 7.4999794,7.4999794 0 0 0 -7.5,-7.5 z m -3.14338,6.17647 6.28676,0 c 0.70639,0 1.26838,0.56199 1.26838,1.26838 l 0,0.1103 c 0,0.70638 -0.56199,1.26838 -1.26838,1.26838 l -6.28676,0 c -0.70639,0 -1.26838,-0.562 -1.26838,-1.26838 l 0,-0.1103 c 0,-0.70639 0.56199,-1.26838 1.26838,-1.26838 z" color="#000" display="inline" enable-background="accumulate" opacity=".7" overflow="visible" visibility="visible" style="marker:none"/><rect stroke-width="1" style="marker:none" id="rect4269" width="19" height="19" x="-290.214" y="522.862" fill="none" stroke="none" color="#000" display="inline" enable-background="accumulate" overflow="visible" visibility="visible"/></g></svg>