<svg xmlns="http://www.w3.org/2000/svg" xmlns:svg="http://www.w3.org/2000/svg" id="svg4486" width="19" height="19" version="1.1" viewBox="0 0 19 19"><metadata id="metadata4491"/><g id="layer1" transform="translate(290.21429,-522.86219)"><path id="path4267" fill="#9cb7e0" fill-opacity="1" fill-rule="nonzero" stroke="none" stroke-width="8" d="m -280.71429,524.36219 a 7.999978,7.999978 0 0 0 -8,8 7.999978,7.999978 0 0 0 8,8 7.999978,7.999978 0 0 0 8,-8 7.999978,7.999978 0 0 0 -8,-8 z m -3.35294,6.58825 6.70588,0 c 0.75348,0 1.35295,0.59944 1.35295,1.35292 l 0,0.11766 c 0,0.75347 -0.59947,1.35294 -1.35295,1.35294 l -6.70588,0 c -0.75348,0 -1.35295,-0.59947 -1.35295,-1.35294 l 0,-0.11766 c 0,-0.75348 0.59947,-1.35292 1.35295,-1.35292 z" color="#000" display="inline" enable-background="accumulate" overflow="visible" visibility="visible" style="marker:none"/><rect stroke-width="1" style="marker:none" id="rect4269" width="19" height="19" x="-290.214" y="522.862" fill="none" stroke="none" color="#000" display="inline" enable-background="accumulate" overflow="visible" visibility="visible"/></g></svg>