<svg xmlns="http://www.w3.org/2000/svg" xmlns:svg="http://www.w3.org/2000/svg" xmlns:xlink="http://www.w3.org/1999/xlink" id="svg4486" width="19" height="19" version="1.1" viewBox="0 0 19 19"><defs id="defs4488"><linearGradient id="linearGradient3001" x1="-1070.104" x2="-1055.621" y1="9.5" y2="9.5" gradientTransform="matrix(0,-1.1738067,1.1738067,0,-291.86545,-732.98154)" gradientUnits="userSpaceOnUse" xlink:href="#linearGradient4297"/><linearGradient id="linearGradient4297"><stop id="stop4523" offset="0" stop-color="#fff" stop-opacity="1"/><stop id="stop4525" offset="1" stop-color="#000" stop-opacity="1"/></linearGradient><linearGradient id="linearGradient3004" x1="-1070.362" x2="-1055.362" y1="9" y2="9" gradientTransform="matrix(0,-1,1,0,-287.35713,-530.50002)" gradientUnits="userSpaceOnUse" xlink:href="#linearGradient4297"/><linearGradient id="linearGradient3021" x1="-1070.362" x2="-1055.362" y1="9" y2="9" gradientTransform="matrix(0,-1.1333333,1.1333333,0,-291.48096,-689.96395)" gradientUnits="userSpaceOnUse" xlink:href="#linearGradient4297"/></defs><metadata id="metadata4491"/><g id="layer1" transform="translate(290.21429,-522.86219)"><path id="path4133" fill="#d63f5b" fill-opacity="1" fill-rule="nonzero" stroke="none" stroke-width="8" d="m -280.71429,524.36219 a 7.9999754,7.9999804 0 0 0 -8,8 7.9999754,7.9999804 0 0 0 8,8 7.9999754,7.9999804 0 0 0 8,-8 7.9999754,7.9999804 0 0 0 -8,-8 z m 2.70588,4.32353 c 0.20756,0.0385 0.43331,0.16859 0.61765,0.35294 0.36869,0.36869 0.47087,0.88206 0.20588,1.14706 l -2.17647,2.17647 2.17647,2.17647 c 0.265,0.26501 0.16281,0.77837 -0.20588,1.14706 -0.36869,0.36869 -0.88205,0.47088 -1.14706,0.20588 l -2.17647,-2.17647 -2.17647,2.17647 c -0.26501,0.265 -0.77837,0.16281 -1.14706,-0.20588 -0.36869,-0.36869 -0.47088,-0.88205 -0.20588,-1.14706 l 2.17647,-2.17647 -2.17647,-2.17647 c -0.265,-0.26501 -0.16281,-0.77837 0.20588,-1.14706 0.18435,-0.18435 0.4109,-0.28974 0.61765,-0.32353 0.20674,-0.0339 0.39691,-0.0148 0.52941,0.11765 l 2.17647,2.17647 2.17647,-2.17647 c 0.1325,-0.13249 0.32186,-0.18557 0.52941,-0.14706 z" color="#000" display="inline" enable-background="accumulate" overflow="visible" visibility="visible" style="marker:none"/><rect stroke-width="1" style="marker:none" id="rect4135" width="20" height="20" x="-290.714" y="522.362" fill="none" stroke="none" color="#000" display="inline" enable-background="accumulate" overflow="visible" visibility="visible"/></g></svg>