<svg xmlns="http://www.w3.org/2000/svg" xmlns:svg="http://www.w3.org/2000/svg" xmlns:xlink="http://www.w3.org/1999/xlink" id="svg4770" width="19" height="19" version="1.1" viewBox="0 0 19 19"><defs id="defs4772"><linearGradient id="linearGradient4656" x1="2" x2="17" y1="1062.862" y2="1062.862" gradientTransform="translate(-1072.3622,-1053.3622)" gradientUnits="userSpaceOnUse" xlink:href="#linearGradient4522"/><linearGradient id="linearGradient4522"><stop id="stop4560" offset="0" stop-color="#605f59" stop-opacity="1"/><stop id="stop4562" offset="1" stop-color="#5b5a54" stop-opacity="1"/></linearGradient><linearGradient id="linearGradient4297"><stop id="stop4523" offset="0" stop-color="#fff" stop-opacity="1"/><stop id="stop4525" offset="1" stop-color="#000" stop-opacity="1"/></linearGradient><linearGradient id="linearGradient7508" x1="-1070.362" x2="-1055.362" y1="9" y2="9" gradientTransform="matrix(0,-1,1,0,0,-3.4765625e-5)" gradientUnits="userSpaceOnUse" xlink:href="#linearGradient4297"/><linearGradient id="linearGradient7514" x1="-1070.104" x2="-1055.621" y1="9.5" y2="9.5" gradientTransform="matrix(0,-1.0357118,1.0357118,0,-0.33926172,-37.956735)" gradientUnits="userSpaceOnUse" xlink:href="#linearGradient4297"/><linearGradient id="linearGradient3001" x1="-1070.104" x2="-1055.621" y1="9.5" y2="9.5" gradientTransform="matrix(0,-1.0357118,1.0357118,0,-287.69639,-568.45672)" gradientUnits="userSpaceOnUse" xlink:href="#linearGradient4297"/><linearGradient id="linearGradient3004" x1="-1070.362" x2="-1055.362" y1="9" y2="9" gradientTransform="matrix(0,-0.93333333,0.93333333,0,-286.72381,-459.64172)" gradientUnits="userSpaceOnUse" xlink:href="#linearGradient4297"/><linearGradient id="linearGradient3002" x1="2" x2="17" y1="1062.862" y2="1062.862" gradientTransform="translate(-1072.3622,-1053.3622)" gradientUnits="userSpaceOnUse" xlink:href="#linearGradient4522"/><linearGradient id="linearGradient3005" x1="-1070.104" x2="-1055.621" y1="9.5" y2="9.5" gradientTransform="matrix(0,-1.0357118,1.0357118,0,-287.69639,-568.45672)" gradientUnits="userSpaceOnUse" xlink:href="#linearGradient4297"/><linearGradient id="linearGradient3003" x1="-1070.104" x2="-1055.621" y1="9.5" y2="9.5" gradientTransform="matrix(0,-0.96660876,0.96666434,0,-287.04045,-495.00929)" gradientUnits="userSpaceOnUse" xlink:href="#linearGradient4297"/></defs><metadata id="metadata4775"/><g id="layer1" transform="translate(287.35714,-522.86219)"><circle id="circle5890" cx="9.5" cy="1062.862" r="8.5" fill="#e5e5e5" fill-opacity="1" fill-rule="nonzero" stroke="none" stroke-width="8" d="m 17.999992,1062.8622 c 0,4.6944 -3.805579,8.5 -8.4999996,8.5 -4.6944204,0 -8.50000003,-3.8056 -8.50000003,-8.5 0,-4.6944 3.80557963,-8.5 8.50000003,-8.5 4.6944206,0 8.4999996,3.8056 8.4999996,8.5 z" color="#000" display="inline" enable-background="accumulate" overflow="visible" transform="matrix(0.88235294,0,0,0.88235294,-286.23949,-405.45738)" visibility="visible" style="marker:none"/><circle id="circle5892" cx="-1062.862" cy="9.5" r="7.5" fill="#f2f2f2" fill-opacity="1" fill-rule="nonzero" stroke="none" stroke-width="8" d="m -1055.3622,9.4999952 c 0,4.1421248 -3.3579,7.4999798 -7.5,7.4999798 -4.1421,0 -7.5,-3.357855 -7.5,-7.4999798 0,-4.1421245 3.3579,-7.4999799 7.5,-7.4999799 4.1421,0 7.5,3.3578554 7.5,7.4999799 z" color="#000" display="inline" enable-background="accumulate" overflow="visible" transform="matrix(0,-0.86666898,0.86666898,0,-286.09049,-388.78749)" visibility="visible" style="marker:none"/></g></svg>