<svg xmlns="http://www.w3.org/2000/svg" xmlns:svg="http://www.w3.org/2000/svg" xmlns:xlink="http://www.w3.org/1999/xlink" id="svg4486" width="19" height="19" version="1.1" viewBox="0 0 19 19"><defs id="defs4488"><linearGradient id="linearGradient3765" x1=".442" x2=".442" y1="3.059" y2="8.148" gradientUnits="userSpaceOnUse" xlink:href="#linearGradient3759"/><linearGradient id="linearGradient3759"><stop id="stop3761" offset="0" stop-color="#000" stop-opacity=".275"/><stop id="stop3763" offset="1" stop-color="#000" stop-opacity="0"/></linearGradient><linearGradient id="linearGradient3782" x1=".442" x2=".442" y1="3.059" y2="8.148" gradientUnits="userSpaceOnUse" xlink:href="#linearGradient3759"/><linearGradient id="linearGradient4297"><stop id="stop4523" offset="0" stop-color="#fff" stop-opacity="1"/><stop id="stop4525" offset="1" stop-color="#000" stop-opacity="1"/></linearGradient><linearGradient id="linearGradient3846" x1="-1070.104" x2="-1055.621" y1="9.5" y2="9.5" gradientTransform="matrix(0,-1.0357118,1.0357118,0,-290.55355,-568.45584)" gradientUnits="userSpaceOnUse" xlink:href="#linearGradient4297"/></defs><metadata id="metadata4491"/><g id="layer1" transform="translate(290.21429,-522.86219)"><path id="path3774" fill="#59a695" fill-opacity="1" d="m 10.484767,26.730295 a 7.3748784,7.3748784 0 1 1 -14.7497569,0 7.3748784,7.3748784 0 1 1 14.7497569,0 z" transform="matrix(1.0169659,0,0,1.0169659,-283.87694,505.17839)"/><circle id="path3338" cx="12" cy="13" r="5.25" fill="#6fd0ba" fill-opacity="1" fill-rule="evenodd" stroke="#6fd0ba" stroke-dasharray="none" stroke-linecap="butt" stroke-linejoin="miter" stroke-miterlimit="4" stroke-opacity="1" stroke-width="1.37" d="m 17.25,13 c 0,2.899495 -2.350505,5.25 -5.25,5.25 -2.8994949,0 -5.25,-2.350505 -5.25,-5.25 0,-2.899495 2.3505051,-5.25 5.25,-5.25 2.899495,0 5.25,2.350505 5.25,5.25 z" transform="matrix(1.0952381,0,0,1.0952381,-293.85715,518.12409)"/></g></svg>