<svg xmlns="http://www.w3.org/2000/svg" xmlns:svg="http://www.w3.org/2000/svg" id="svg4486" width="19" height="19" version="1.1" viewBox="0 0 19 19"><metadata id="metadata4491"/><g id="layer1" transform="translate(290.21429,-522.86219)"><path id="path4224" fill="#6fd0ba" fill-opacity="1" fill-rule="nonzero" stroke="none" stroke-width="8" d="m -280.71429,524.36219 a 7.9999782,7.9999782 0 0 0 -8,8 7.9999782,7.9999782 0 0 0 8,8 7.9999782,7.9999782 0 0 0 8,-8 7.9999782,7.9999782 0 0 0 -8,-8 z m -2.4,3.73333 5.46667,0 c 0.6648,0 1.2,0.5352 1.2,1.2 l 0,5.46667 -6.66667,-6.66667 z m -1.86667,1.86667 6.66667,6.66667 -5.46667,0 c -0.6648,0 -1.2,-0.5352 -1.2,-1.2 l 0,-5.46667 z" color="#000" display="inline" enable-background="accumulate" overflow="visible" visibility="visible" style="marker:none"/><rect id="rect4226" width="19" height="19" x="-290.214" y="522.862" fill="none" stroke="none" stroke-width="1" color="#000" display="inline" enable-background="accumulate" overflow="visible" visibility="visible" style="marker:none"/></g></svg>