<svg xmlns="http://www.w3.org/2000/svg" xmlns:svg="http://www.w3.org/2000/svg" xmlns:xlink="http://www.w3.org/1999/xlink" id="svg4486" width="19" height="19" version="1.1" viewBox="0 0 19 19"><defs id="defs4488"><linearGradient id="linearGradient3844" x1="-1070.362" x2="-1055.362" y1="9" y2="9" gradientTransform="matrix(0,-1,1,0,-290.21429,-530.49914)" gradientUnits="userSpaceOnUse" xlink:href="#linearGradient4297"/><linearGradient id="linearGradient4297"><stop id="stop4523" offset="0" stop-color="#fff" stop-opacity="1"/><stop id="stop4525" offset="1" stop-color="#000" stop-opacity="1"/></linearGradient><linearGradient id="linearGradient3846" x1="-1070.104" x2="-1055.621" y1="9.5" y2="9.5" gradientTransform="matrix(0,-1.0357118,1.0357118,0,-290.55355,-568.45584)" gradientUnits="userSpaceOnUse" xlink:href="#linearGradient4297"/><linearGradient id="linearGradient3971" x1="-1070.104" x2="-1055.621" y1="9.5" y2="9.5" gradientTransform="matrix(0,-1.0357118,1.0357118,0,-290.55355,-568.45584)" gradientUnits="userSpaceOnUse" xlink:href="#linearGradient4297"/></defs><metadata id="metadata4491"/><g id="layer1" transform="translate(290.21429,-522.86219)"><rect id="rect4238" width="19" height="19" x="-290.214" y="522.862" fill="none" stroke="none" stroke-width="1" color="#000" display="inline" enable-background="accumulate" opacity=".7" overflow="visible" visibility="visible" style="marker:none"/><path id="path3764" fill="#6fd0ba" fill-opacity="1" stroke="none" d="M 9.5 2 C 5.3578642 2 2 5.3578643 2 9.5 C 2 13.642136 5.3578642 17 9.5 17 C 13.642136 17 17 13.642136 17 9.5 C 17 5.3578643 13.642136 2 9.5 2 z M 7.28125 5.5 L 12.5 5.5 C 13.054 5.5 13.5 5.946 13.5 6.5 L 13.5 11.71875 L 7.28125 5.5 z M 5.5 7.28125 L 11.71875 13.5 L 6.5 13.5 C 5.946 13.5 5.5 13.054 5.5 12.5 L 5.5 7.28125 z" opacity=".7" transform="translate(-290.21429,522.86219)"/></g></svg>