<svg xmlns="http://www.w3.org/2000/svg" xmlns:svg="http://www.w3.org/2000/svg" id="svg4486" width="19" height="19" version="1.1" viewBox="0 0 19 19"><metadata id="metadata4491"/><g id="layer1" transform="translate(290.21429,-522.86219)"><path id="path4267" fill="#9cb7e0" fill-opacity="1" fill-rule="nonzero" stroke="none" stroke-width="8" d="m -280.71429,524.86219 a 7.4999794,7.4999794 0 0 0 -7.5,7.5 7.4999794,7.4999794 0 0 0 7.5,7.5 7.4999794,7.4999794 0 0 0 7.5,-7.5 7.4999794,7.4999794 0 0 0 -7.5,-7.5 z m -3.14338,6.17647 6.28676,0 c 0.70639,0 1.26838,0.56199 1.26838,1.26838 l 0,0.1103 c 0,0.70638 -0.56199,1.26838 -1.26838,1.26838 l -6.28676,0 c -0.70639,0 -1.26838,-0.562 -1.26838,-1.26838 l 0,-0.1103 c 0,-0.70639 0.56199,-1.26838 1.26838,-1.26838 z" color="#000" display="inline" enable-background="accumulate" overflow="visible" visibility="visible" style="marker:none"/><rect stroke-width="1" style="marker:none" id="rect4269" width="19" height="19" x="-290.214" y="522.862" fill="none" stroke="none" color="#000" display="inline" enable-background="accumulate" overflow="visible" visibility="visible"/></g></svg>