<svg xmlns="http://www.w3.org/2000/svg" xmlns:svg="http://www.w3.org/2000/svg" xmlns:xlink="http://www.w3.org/1999/xlink" id="svg4486" width="19" height="19" version="1.1" viewBox="0 0 19 19"><defs id="defs10"><linearGradient id="linearGradient3844" x1="-1070.362" x2="-1055.362" y1="9" y2="9" gradientTransform="matrix(0,-1,1,0,-290.21429,-530.49914)" gradientUnits="userSpaceOnUse" xlink:href="#linearGradient4297"/><linearGradient id="linearGradient4297"><stop id="stop4523" offset="0" stop-color="#fff" stop-opacity="1"/><stop id="stop4525" offset="1" stop-color="#000" stop-opacity="1"/></linearGradient><linearGradient id="linearGradient3846" x1="-1070.104" x2="-1055.621" y1="9.5" y2="9.5" gradientTransform="matrix(0,-1.0357118,1.0357118,0,-290.55355,-568.45584)" gradientUnits="userSpaceOnUse" xlink:href="#linearGradient4297"/><linearGradient id="linearGradient4023" x1="-1070.104" x2="-1055.621" y1="9.5" y2="9.5" gradientTransform="matrix(0,-1.0357118,1.0357118,0,-290.55355,-568.45584)" gradientUnits="userSpaceOnUse" xlink:href="#linearGradient4297"/></defs><metadata id="metadata4491"/><path id="path2996" fill="#6fd0ba" fill-opacity="1" stroke="none" d="M 9.5000002,1.9999998 C 5.3629344,1.9999998 2,5.3629342 2,9.5 2,13.637066 5.3629344,17 9.5000002,17 13.637066,17 17,13.637066 17,9.5 17,5.3629342 13.637066,1.9999998 9.5000002,1.9999998 z m -0.2790699,3.5232559 3.1744187,0 c 0.58587,0 1.081396,0.4955251 1.081396,1.0813954 l 0,3.1744187 c 0,0.5858702 -0.495526,1.0465112 -1.081396,1.0465112 l -0.697675,0 0,0.697675 c 0,0.585871 -0.460641,1.046512 -1.046511,1.046512 l -3.1744187,0 c -0.5858703,0 -1.0465116,-0.460641 -1.0465116,-1.046512 l 0,-3.1744189 c 0,-0.5858702 0.4606413,-1.0465116 1.0465116,-1.0465116 l 0.6976744,0 0,-0.6976744 c 0,-0.5858703 0.4606413,-1.0813954 1.0465116,-1.0813954 z" opacity=".7"/><path id="rect3766-2-8" fill="#fff" fill-opacity="1" stroke="none" d="m 9.2437543,5.5231452 3.1725817,0 c 0.585871,0 1.057527,0.4716573 1.057527,1.0575275 l 0,3.172583 c 0,0.5858683 -0.471656,1.0575263 -1.057527,1.0575263 l -3.1725817,0 c -0.5858715,0 -1.0575283,-0.471658 -1.0575283,-1.0575263 l 0,-3.1725829 c 0,-0.5858703 0.4716568,-1.0575275 1.0575283,-1.0575275 z" opacity=".5"/></svg>