<svg xmlns="http://www.w3.org/2000/svg" xmlns:svg="http://www.w3.org/2000/svg" id="svg4486" width="19" height="19" version="1.1" viewBox="0 0 19 19"><defs id="defs4488"><filter id="filter4405" width="1.24" height="1.24" x="-.12" y="-.12" color-interpolation-filters="sRGB"><feGaussianBlur id="feGaussianBlur4407" stdDeviation=".75"/></filter></defs><metadata id="metadata4491"/><path id="path2996" fill="#6fd0ba" fill-opacity="1" stroke="none" d="M 9.500001,1.5 C 5.08713,1.5 1.5,5.08713 1.5,9.500001 1.5,13.91287 5.08713,17.5 9.500001,17.5 13.91287,17.5 17.5,13.91287 17.5,9.500001 17.5,5.08713 13.91287,1.5 9.500001,1.5 z m -0.297675,3.75814 3.386046,0 c 0.624928,0 1.153489,0.52856 1.153489,1.153488 l 0,3.386047 c 0,0.624929 -0.528561,1.116279 -1.153489,1.116279 l -0.744186,0 0,0.744186 c 0,0.624929 -0.49135,1.116279 -1.116278,1.116279 l -3.386047,0 c -0.624928,0 -1.116279,-0.49135 -1.116279,-1.116279 l 0,-3.386047 c 0,-0.624928 0.491351,-1.116279 1.116279,-1.116279 l 0.744186,0 0,-0.744186 c 0,-0.624928 0.491351,-1.153488 1.116279,-1.153488 z"/><path id="rect3766-2-8" fill="#fff" fill-opacity="1" stroke="none" d="m 9.226672,5.258022 3.384086,0 c 0.624929,0 1.128029,0.503101 1.128029,1.128029 l 0,3.384089 c 0,0.624927 -0.5031,1.128028 -1.128029,1.128028 l -3.384086,0 c -0.62493,0 -1.12803,-0.503101 -1.12803,-1.128028 l 0,-3.384088 c 0,-0.624929 0.5031,-1.12803 1.12803,-1.12803 z" opacity=".5"/></svg>