<svg xmlns="http://www.w3.org/2000/svg" xmlns:svg="http://www.w3.org/2000/svg" id="svg4486" width="19" height="19" version="1.1" viewBox="0 0 19 19"><defs id="defs4488"><filter id="filter4405" width="1.24" height="1.24" x="-.12" y="-.12" color-interpolation-filters="sRGB"><feGaussianBlur id="feGaussianBlur4407" stdDeviation=".75"/></filter></defs><metadata id="metadata4491"/><path id="path2996" fill="#6fd0ba" fill-opacity="1" stroke="none" d="m 9.5,1.4999998 c -4.4128702,0 -8.0000002,3.58713 -8.0000002,8.0000002 0,4.41287 3.58713,8 8.0000002,8 4.41287,0 8,-3.58713 8,-8 0,-4.4128702 -3.58713,-8.0000002 -8,-8.0000002 z m -0.2976745,3.7581396 3.3860465,0 c 0.624928,0 1.153489,0.5285601 1.153489,1.1534884 l 0,3.3860466 c 0,0.6249286 -0.528561,1.1162786 -1.153489,1.1162786 l -0.744186,0 0,0.744187 c 0,0.624929 -0.491351,1.116279 -1.116279,1.116279 l -3.3860466,0 c -0.6249283,0 -1.1162791,-0.49135 -1.1162791,-1.116279 l 0,-3.3860471 c 0,-0.6249282 0.4913508,-1.116279 1.1162791,-1.116279 l 0.744186,0 0,-0.7441861 c 0,-0.6249283 0.4913507,-1.1534884 1.1162791,-1.1534884 z"/><path id="rect3766-2-8" fill="#fff" fill-opacity="1" stroke="none" d="m 9.226671,5.2580215 3.384087,0 c 0.624929,0 1.128029,0.5031012 1.128029,1.1280294 l 0,3.3840885 c 0,0.6249266 -0.5031,1.1280276 -1.128029,1.1280276 l -3.384087,0 c -0.6249295,0 -1.1280301,-0.503101 -1.1280301,-1.1280276 l 0,-3.3840884 c 0,-0.6249283 0.5031006,-1.1280294 1.1280301,-1.1280294 z" opacity=".5"/></svg>