<svg xmlns="http://www.w3.org/2000/svg" xmlns:svg="http://www.w3.org/2000/svg" id="svg2" width="16" height="16" version="1.1" viewBox="0 0 16 16"><metadata id="metadata8"/><path id="path3338" fill="#6fd0ba" fill-opacity="1" fill-rule="evenodd" stroke="none" stroke-dasharray="none" stroke-linecap="butt" stroke-linejoin="miter" stroke-miterlimit="4" stroke-opacity="1" stroke-width="2.283" d="M 8,1 A 7,7 0 0 0 1,8 7,7 0 0 0 8,15 7,7 0 0 0 15,8 7,7 0 0 0 8,1 Z m -2,6 4,0 c 0.554,0 1,0.446 1,1 0,0.554 -0.446,1 -1,1 L 6,9 C 5.446,9 5,8.554 5,8 5,7.446 5.446,7 6,7 Z"/></svg>