<svg xmlns="http://www.w3.org/2000/svg" xmlns:svg="http://www.w3.org/2000/svg" id="svg2" width="16" height="16" version="1.1" viewBox="0 0 16 16"><metadata id="metadata8"/><path id="path3338" fill="#9cb7e0" fill-opacity="1" fill-rule="evenodd" stroke="none" stroke-dasharray="none" stroke-linecap="butt" stroke-linejoin="miter" stroke-miterlimit="4" stroke-opacity="1" stroke-width="1.615" d="M 8 1 A 7 7 0 0 0 1 8 A 7 7 0 0 0 8 15 A 7 7 0 0 0 15 8 A 7 7 0 0 0 8 1 z M 7 5 L 10.25 5 C 10.6655 5 11 5.3345 11 5.75 L 11 9 L 7 5 z M 5 7 L 9 11 L 5.75 11 C 5.3345 11 5 10.6655 5 10.25 L 5 7 z"/></svg>