<svg xmlns="http://www.w3.org/2000/svg" xmlns:svg="http://www.w3.org/2000/svg" id="svg2" width="16" height="16" version="1.1" viewBox="0 0 16 16"><metadata id="metadata8"/><path id="path3338" fill="#d63f5b" fill-opacity="1" fill-rule="evenodd" stroke="none" stroke-dasharray="none" stroke-linecap="butt" stroke-linejoin="miter" stroke-miterlimit="4" stroke-opacity="1" stroke-width="2.5" d="M 8 1 A 7 7 0 0 0 1 8 A 7 7 0 0 0 8 15 A 7 7 0 0 0 15 8 A 7 7 0 0 0 8 1 z M 10.507812 4.7851562 C 10.688535 4.7851562 10.869336 4.8537096 11.007812 4.9921875 C 11.284769 5.2691433 11.284769 5.7152317 11.007812 5.9921875 L 9 8 L 11 10 C 11.276956 10.276956 11.276956 10.723044 11 11 C 10.723044 11.276956 10.276956 11.276956 10 11 L 8 9 L 6.0078125 10.992188 C 5.7308567 11.269142 5.2847683 11.269142 5.0078125 10.992188 C 4.7308567 10.715232 4.7308567 10.269143 5.0078125 9.9921875 L 7 8 L 5 6 C 4.7230442 5.7230442 4.7230442 5.2769558 5 5 C 5.2769558 4.7230442 5.7230442 4.7230442 6 5 L 8 7 L 10.007812 4.9921875 C 10.14629 4.8537096 10.327091 4.7851562 10.507812 4.7851562 z"/></svg>