<svg xmlns="http://www.w3.org/2000/svg" xmlns:svg="http://www.w3.org/2000/svg" id="svg2" width="100%" height="100%" version="1.1" viewBox="0 0 16 16"><metadata id="metadata16"/><rect id="rect4134" width="14" height="14" x="1" y="1" fill="#fafafa" fill-opacity="1" stroke="none" stroke-dasharray="none" stroke-linecap="butt" stroke-linejoin="miter" stroke-miterlimit="0" stroke-opacity="1" stroke-width="0" opacity="1" rx="1" ry="1"/><path id="rect4141" fill="#676775" fill-opacity="1" stroke="none" stroke-dasharray="none" stroke-linecap="butt" stroke-linejoin="miter" stroke-miterlimit="0" stroke-opacity="1" stroke-width="0" d="M 2 0 C 0.892 0 0 0.892 0 2 L 0 14 C 0 15.108 0.892 16 2 16 L 14 16 C 15.108 16 16 15.108 16 14 L 16 2 C 16 0.892 15.108 0 14 0 L 2 0 z M 2.75 1 L 13.25 1 C 14.2195 1 15 1.7805 15 2.75 L 15 13.25 C 15 14.2195 14.2195 15 13.25 15 L 2.75 15 C 1.7805 15 1 14.2195 1 13.25 L 1 2.75 C 1 1.7805 1.7805 1 2.75 1 z" opacity="1"/></svg>